# xmcd
#
# Track frame offsets:
#	150
#	17032
#	34452
#	52175
#	69510
#	87340
#	105380
#	121410
#	137137
#	152800
#	168840
#	184637
#	200167
#
# Disc length: 2850 seconds
#
# Revision: 0
# Processed by: cddbd v1.5.1PL0 Copyright (c) Steve Scherf et al.
# Submitted via: EasyCDDAExtractor 8.2.2.1
#
DISCID=b60b200d
DTITLE=Matti Esko - Reissumies
DYEAR=1991
DGENRE=Country
TTITLE0=Reissumies
TTITLE1=Mä odotin sua
TTITLE2=Sumuinen aamu
TTITLE3=Lähemmäs vielä
TTITLE4=Oli puu, kuu ja yö
TTITLE5=Jalanjäljet rantahiekkaan jää
TTITLE6=Risteysasema
TTITLE7=Yöradio
TTITLE8=Tulen Kuusamoon
TTITLE9=Raavas mies
TTITLE10=Sä lohdutat mua
TTITLE11=Sä kuulut päivään jokaiseen
TTITLE12=Vanhat laulut nuo
EXTD=
EXTT0=
EXTT1=
EXTT2=
EXTT3=
EXTT4=
EXTT5=
EXTT6=
EXTT7=
EXTT8=
EXTT9=
EXTT10=
EXTT11=
EXTT12=
PLAYORDER=
